<svg width="70" height="70" viewBox="0 0 70 70" fill="none" xmlns="http://www.w3.org/2000/svg">
<mask id="mask0_13004_406" style="mask-type:luminance" maskUnits="userSpaceOnUse" x="0" y="0" width="70" height="70">
<path d="M34.7308 0C15.6154 0.269231 0 15.8846 0 35C0 54.3846 15.6154 70 35 70C54.3846 70 70 54.3846 70 35C70 15.8846 54.3846 0 35.2692 0H34.7308Z" fill="white"/>
</mask>
<g mask="url(#mask0_13004_406)">
<path d="M35.2695 70.269C25.8465 70.269 16.9618 66.4998 10.5003 60.0382C3.7695 53.3075 0.269531 44.6921 0.269531 35.269C0.269531 25.846 4.03873 16.9613 10.5003 10.4998C17.231 3.76901 25.8465 0.269043 35.2695 0.269043C44.6926 0.269043 53.5772 4.03824 60.0387 10.4998C66.7695 17.2305 70.2695 25.846 70.2695 35.269C70.2695 44.6921 66.5003 53.5767 60.0387 60.0382C53.3079 66.4998 44.6926 70.269 35.2695 70.269ZM35.2695 5.38441C18.8465 5.38441 5.65415 18.8459 5.65415 34.9998C5.65415 51.4229 19.1157 64.6152 35.2695 64.6152C51.6926 64.6152 64.8849 51.1536 64.8849 34.9998C64.8849 18.8459 51.6926 5.38441 35.2695 5.38441Z" fill="#70A25C"/>
</g>
<mask id="mask1_13004_406" style="mask-type:luminance" maskUnits="userSpaceOnUse" x="0" y="0" width="70" height="70">
<path d="M34.7308 0C15.6154 0.269231 0 15.8846 0 35C0 54.3846 15.6154 70 35 70C54.3846 70 70 54.3846 70 35C70 15.8846 54.3846 0 35.2692 0H34.7308Z" fill="white"/>
</mask>
<g mask="url(#mask1_13004_406)">
<path d="M25.3074 45.7693C24.7689 44.6924 24.4997 43.6155 23.9612 42.2693C22.6151 42.2693 21.5382 42.2693 20.4613 42.2693C20.192 42.2693 19.6536 42.5385 19.3844 43.077C18.8459 43.8847 18.3074 44.9616 17.769 45.7693C16.9613 46.8462 15.8843 47.3846 14.5382 46.5769C13.4612 46.0385 12.9228 44.6924 13.4612 43.6155C14.2689 42.0001 15.0766 40.1154 16.1536 38.7693C16.692 38.2308 17.7689 37.6924 18.5766 37.6924C19.9228 37.4231 21.5382 37.6924 22.8843 37.6924C23.1536 37.4231 23.1536 37.4231 23.1536 37.1539C22.8843 34.4615 22.8843 34.4616 20.4613 33.6539C15.3459 32.0385 15.6151 32.3077 15.6151 26.9231C15.6151 26.3847 15.6151 25.5769 15.6151 25.0385C15.8843 23.6923 16.692 22.8847 18.0382 22.8847C19.3844 22.8847 20.4613 23.6923 20.4613 25.0385C20.4613 25.3077 20.4613 25.577 20.4613 25.8462C20.4613 28.5385 20.7305 28.8077 23.4228 29.3462C23.692 29.3462 24.2305 29.3462 24.4997 29.0769C25.8459 28 26.9228 26.9231 28.2689 25.577C27.192 23.1539 27.7305 20.7308 29.3458 18.3077C29.0766 18.0385 28.8074 17.7693 28.5382 17.5C27.4613 16.1539 27.4613 15.077 28.5382 14.0001C29.6151 12.9232 30.692 12.9232 32.0382 14.0001C32.8458 14.8078 33.3843 15.6154 34.7305 15.6154C36.3458 15.6154 37.1536 14.8078 37.9613 14.0001C38.4997 13.4616 39.5766 13.1923 40.3843 13.4616C41.192 13.7308 41.9997 14.5385 41.9997 15.3462C41.9997 16.4232 41.192 17.5 40.9228 18.5769C42.5382 21.8077 42.5382 22.6154 41.7305 25.577C43.0766 26.9231 44.4228 28 45.7689 29.3462C46.0382 29.6154 46.3074 29.6154 46.5766 29.6154C49.2689 29.077 49.2689 29.077 49.5382 26.1155C49.5382 25.577 49.5382 25.0385 49.8074 24.5001C50.3459 23.4231 51.1535 22.8847 52.2305 23.1539C53.3074 23.4231 54.1151 23.9616 54.3844 25.3077C54.3844 27.1923 54.6536 29.0769 54.3844 30.6923C54.3844 31.5 53.3074 32.3078 52.769 32.8462C51.692 33.3847 50.3459 33.9232 48.9997 34.1924C47.6536 34.4616 46.8459 35.2693 47.1151 36.6154C47.1151 36.8847 47.1151 37.4231 47.1151 37.9616C48.4612 37.9616 50.0766 37.9616 51.4228 37.9616C52.769 37.9616 53.8458 38.5 54.6535 39.8462C55.192 41.1923 55.9997 42.5385 56.8074 43.8846C57.3459 45.2308 57.0767 46.577 55.7305 47.1154C54.3844 47.6539 53.3074 47.3847 52.4997 46.0385C52.4997 46.0385 52.4997 45.7693 52.2305 45.7693C51.4228 42.8077 49.269 42 46.3074 42.8077C46.0382 43.6154 45.4997 44.6924 45.2304 46.0385C46.3074 46.577 47.3843 47.1155 48.192 47.6539C49.2689 48.1924 49.8074 49.0001 49.8074 50.3462C49.8074 51.6924 49.8074 53.3077 49.8074 54.6539C49.8074 56.2692 48.7305 57.077 47.3843 57.077C46.0382 57.077 44.9613 56 44.9613 54.6539C44.9613 54.3846 44.9613 54.1154 44.9613 53.8462C44.9613 51.1539 44.9612 51.1539 42.8074 50.3462C40.9228 51.6924 39.0381 53.0385 37.1535 54.1154C36.0766 54.9231 34.7305 54.9231 33.3843 54.1154C31.4997 53.0385 29.8843 51.6924 27.7304 50.3462C25.5766 51.1539 25.5766 51.1539 25.5766 53.8462C25.5766 54.1154 25.5766 54.6539 25.5766 55.1924C25.3074 56.5385 24.4997 57.3462 23.1536 57.3462C21.8074 57.3462 20.9997 56.5385 20.7305 55.1924C20.7305 53.3077 20.4613 51.6924 20.7305 49.8077C20.7305 49 21.5382 48.1923 22.0767 47.9231C23.1536 46.8462 24.2305 46.3077 25.3074 45.7693ZM37.692 30.1539C37.692 32.577 37.692 34.7308 37.692 36.8847C37.692 38.7693 36.8843 39.8462 35.269 39.8462C33.6536 39.8462 32.8459 38.7693 32.8459 36.8847C32.8459 34.7308 32.8459 32.577 32.8459 30.1539C30.1536 29.8847 27.9997 31.2308 27.9997 33.3846C27.7305 37.4231 28.2689 41.4616 30.692 44.9616C34.4612 50.6155 36.0766 50.6155 39.8458 44.9616C41.9997 42.0001 42.2689 38.2308 42.5381 34.7308C42.5381 31.5 41.192 30.1539 37.692 30.1539ZM35.269 25.3077C36.6151 25.3077 37.692 24.2308 37.692 22.8847C37.692 21.5385 36.6151 20.4616 35.269 20.4616C33.9228 20.4616 32.8459 21.5385 32.8459 22.8847C32.8459 24.2308 33.9228 25.3077 35.269 25.3077Z" fill="#70A25C"/>
</g>
</svg>
