<svg width="70" height="70" viewBox="0 0 70 70" fill="none" xmlns="http://www.w3.org/2000/svg">
<mask id="mask0_13004_350" style="mask-type:luminance" maskUnits="userSpaceOnUse" x="0" y="0" width="70" height="70">
<path d="M0 35.0017C0 54.3854 15.6154 70 35 70C54.3846 70 70 54.3854 70 35.0017C70 15.618 54.3846 0.00337258 35 0.00337258C15.8846 -0.265845 0 15.618 0 35.0017Z" fill="white"/>
</mask>
<g mask="url(#mask0_13004_350)">
<path d="M64.6152 52.5008C58.6921 64.3463 44.4229 71.0768 31.2306 68.6538C12.6537 65.6924 -0.000157118 47.3856 4.30754 29.0788C5.38446 24.7713 7.26909 20.7331 9.9614 17.5024C8.07678 21.2715 6.73056 25.3097 6.1921 29.348C4.30749 46.0395 15.3459 61.6542 31.769 64.8848C39.8459 66.5001 48.1921 64.8848 54.9229 60.5773C58.6921 58.6928 61.9229 55.7314 64.6152 52.5008Z" fill="#282E4C"/>
</g>
<mask id="mask1_13004_350" style="mask-type:luminance" maskUnits="userSpaceOnUse" x="0" y="0" width="70" height="70">
<path d="M0 35.0017C0 54.3854 15.6154 70 35 70C54.3846 70 70 54.3854 70 35.0017C70 15.618 54.3846 0.00337258 35 0.00337258C15.8846 -0.265845 0 15.618 0 35.0017Z" fill="white"/>
</mask>
<g mask="url(#mask1_13004_350)">
<path d="M58.9618 48.4628C54.6542 57.8854 43.3464 63.0006 33.1157 61.1161C18.8464 58.6931 8.88493 44.6937 12.1157 30.4252C12.9234 27.1946 14.5388 23.964 16.6927 21.541C15.3465 24.5024 14.5387 27.4638 14.2695 30.6944C13.1926 43.3476 21.5388 54.924 33.9234 57.3469C41.4619 58.9623 49.5388 56.8086 55.4619 51.6934C56.5388 50.8858 57.8849 49.8089 58.9618 48.4628Z" fill="#282E4C"/>
</g>
<mask id="mask2_13004_350" style="mask-type:luminance" maskUnits="userSpaceOnUse" x="0" y="0" width="70" height="70">
<path d="M0 35.0017C0 54.3854 15.6154 70 35 70C54.3846 70 70 54.3854 70 35.0017C70 15.618 54.3846 0.00337258 35 0.00337258C15.8846 -0.265845 0 15.618 0 35.0017Z" fill="white"/>
</mask>
<g mask="url(#mask2_13004_350)">
<path d="M43.8844 47.9243C41.4613 51.4241 37.9613 53.0394 33.9229 52.2318C30.1536 51.6933 26.9229 48.732 25.846 44.9629C24.769 41.4631 25.5767 38.2325 27.9998 35.5403L28.5383 35.0018C28.5383 35.0018 31.4998 33.3865 36.0767 33.6558C34.4613 35.0018 32.846 36.3479 31.4998 37.694C30.1537 39.0401 29.3459 40.6554 29.6152 42.8091C29.6152 45.5013 31.769 47.9243 34.4613 48.4627C37.1536 49.0012 39.8459 47.9243 41.1921 45.5013C41.7305 44.4244 41.9998 43.3476 41.9998 42.0015C41.7306 42.2707 41.7306 42.5399 41.7306 42.5399C40.9229 44.4244 38.769 45.7705 36.6152 45.5013C34.4613 45.2321 32.846 43.6168 32.5767 41.4631C32.3075 39.0401 33.9229 36.6171 36.3459 36.0787C37.4229 35.8095 38.4998 35.8095 39.8459 36.3479C44.6921 37.694 47.1151 43.3476 43.8844 47.9243Z" fill="#282E4C"/>
</g>
<mask id="mask3_13004_350" style="mask-type:luminance" maskUnits="userSpaceOnUse" x="0" y="0" width="70" height="70">
<path d="M0 35.0017C0 54.3854 15.6154 70 35 70C54.3846 70 70 54.3854 70 35.0017C70 15.618 54.3846 0.00337258 35 0.00337258C15.8846 -0.265845 0 15.618 0 35.0017Z" fill="white"/>
</mask>
<g mask="url(#mask3_13004_350)">
<path d="M40.115 1.8877L40.3842 2.15685C56.8073 3.77215 69.7303 17.5023 69.7303 34.463C69.7303 52.2314 55.1919 66.7691 37.4226 66.7691C19.6534 66.7691 5.11495 52.2314 5.11495 34.463C5.11495 19.1176 15.8842 6.19516 30.1535 2.96455L30.4226 2.69532C15.6149 5.92593 4.8457 19.1176 4.8457 34.7322C4.8457 52.7698 19.6534 67.5768 37.6919 67.5768C55.7304 67.5768 70.5381 52.7698 70.5381 34.7322C70.2688 17.2331 57.0765 3.23378 40.115 1.8877Z" fill="#282E4C"/>
</g>
<mask id="mask4_13004_350" style="mask-type:luminance" maskUnits="userSpaceOnUse" x="0" y="0" width="70" height="70">
<path d="M0 35.0017C0 54.3854 15.6154 70 35 70C54.3846 70 70 54.3854 70 35.0017C70 15.618 54.3846 0.00337258 35 0.00337258C15.8846 -0.265845 0 15.618 0 35.0017Z" fill="white"/>
</mask>
<g mask="url(#mask4_13004_350)">
<path d="M45.7696 11.0415V11.3107C55.462 14.5414 62.462 23.9639 62.462 34.7326C62.462 48.4627 51.4235 59.5007 37.6927 59.5007C23.962 59.5007 12.9235 48.4627 12.9235 34.7326C12.9235 25.31 18.3081 16.9643 26.385 12.6568V12.3876C18.3081 16.4259 12.6543 25.0408 12.6543 34.7326C12.6543 48.4627 23.962 59.7699 37.6927 59.7699C51.4235 59.7699 62.7312 48.4627 62.7312 34.7326C63.0004 23.9639 55.7312 14.5413 45.7696 11.0415Z" fill="#282E4C"/>
</g>
<mask id="mask5_13004_350" style="mask-type:luminance" maskUnits="userSpaceOnUse" x="0" y="0" width="70" height="70">
<path d="M0 35.0017C0 54.3854 15.6154 70 35 70C54.3846 70 70 54.3854 70 35.0017C70 15.618 54.3846 0.00337258 35 0.00337258C15.8846 -0.265845 0 15.618 0 35.0017Z" fill="white"/>
</mask>
<g mask="url(#mask5_13004_350)">
<path d="M56.2695 34.4632C50.6157 37.4246 45.2311 36.617 41.4618 31.2326C43.0772 30.4249 44.6926 29.6173 46.5772 29.6173C48.4618 29.6173 49.808 30.9633 51.1541 32.0402C50.0772 31.5018 49.0003 30.9633 47.6542 30.6941C46.308 30.4249 45.2311 30.4249 44.1541 31.2326C46.0387 33.6556 51.1541 34.7324 53.5772 33.3863C53.308 33.1171 53.0388 32.5787 52.7695 32.3095C51.6926 30.9634 50.6157 29.6172 49.0003 29.0788C48.1926 28.8096 47.3849 28.5404 46.5772 28.5404C45.231 28.5404 44.1541 28.8096 42.808 29.348C42.2695 29.6173 41.7311 29.8865 41.4618 30.1557C39.5772 31.2326 37.9618 32.3095 36.3465 33.6555C31.7695 33.3863 28.808 35.0016 28.808 35.0016L28.2695 35.5401C28.5388 35.2709 28.808 35.0016 29.3464 34.4632C30.9618 32.8479 32.8464 31.5018 34.7311 29.8865C35.5387 29.0789 36.3465 28.5404 36.8849 27.7327C38.2311 26.1174 39.8465 24.5021 40.6542 22.6176C41.4619 21.0023 42.0003 19.1178 42.0003 17.2332C42.0003 15.8872 41.7311 14.5411 41.4618 13.195C40.6541 10.772 39.308 8.61827 37.6926 6.46453C37.1541 5.92609 36.6157 5.11849 36.0772 4.58005L35.808 4.31082C32.0387 8.88752 31.231 16.6949 34.4618 22.0792C35.0003 21.81 35.2696 21.2716 35.5388 20.7331C36.8849 18.8486 37.6926 16.4256 37.4234 14.0027C37.4234 12.3874 36.8849 10.772 36.3465 9.15671C36.3465 8.88749 36.3464 8.88754 36.0772 8.61832C37.6926 11.0413 39.0388 13.7334 39.0388 16.964C39.0388 18.5793 38.5003 20.4639 37.6926 21.81C37.4234 22.3484 36.8849 23.156 36.6157 23.6945C35.5388 24.7713 34.7311 26.1175 33.6541 27.1943L33.3849 27.4636C32.8464 26.6559 32.308 25.8483 31.5003 24.7714C30.9619 23.9637 30.4234 23.156 30.1542 22.3484C28.808 19.1178 27.7311 15.8872 28.2695 12.3874C28.5388 10.2336 29.0772 8.07982 29.8849 6.1953C31.2311 3.2339 33.1157 0.81094 35.0003 -1.88124C35.0003 -1.88124 35.2695 -1.88117 35.2695 -2.15039C35.5388 -1.88117 35.808 -1.88122 35.808 -1.612C37.4233 0.27252 39.0388 1.88784 40.6542 4.04159C42.808 6.73376 44.4234 9.69514 45.5003 13.195C46.308 16.1564 46.0388 19.1178 44.9619 21.81C44.6926 22.6176 44.4233 23.4253 43.8849 24.2329C43.6157 24.7714 43.0772 25.0406 42.808 25.579C42.5387 25.8482 42.2695 26.3866 42.0003 26.6559C42.5388 26.3866 45.2311 25.579 46.308 25.579C47.3849 25.579 47.9234 25.579 48.7311 25.8482C49.5388 26.1175 50.0772 26.6559 50.6157 26.9251C52.231 28.002 53.308 29.3481 54.3849 30.9634C54.9234 32.8479 55.4618 33.6555 56.2695 34.4632Z" fill="#73B55F"/>
</g>
<mask id="mask6_13004_350" style="mask-type:luminance" maskUnits="userSpaceOnUse" x="0" y="0" width="70" height="70">
<path d="M0 35.0017C0 54.3854 15.6154 70 35 70C54.3846 70 70 54.3854 70 35.0017C70 15.618 54.3846 0.00337258 35 0.00337258C15.8846 -0.265845 0 15.618 0 35.0017Z" fill="white"/>
</mask>
<g mask="url(#mask6_13004_350)">
<path d="M41.4611 1.88778C41.4611 2.42622 41.1919 2.6954 40.6534 2.6954C40.115 2.6954 39.8457 2.42622 39.8457 1.88778C39.8457 1.34935 40.115 1.08008 40.6534 1.08008C41.1919 1.08008 41.4611 1.61856 41.4611 1.88778Z" fill="#282E4C"/>
</g>
<mask id="mask7_13004_350" style="mask-type:luminance" maskUnits="userSpaceOnUse" x="0" y="0" width="70" height="70">
<path d="M0 35.0017C0 54.3854 15.6154 70 35 70C54.3846 70 70 54.3854 70 35.0017C70 15.618 54.3846 0.00337258 35 0.00337258C15.8846 -0.265845 0 15.618 0 35.0017Z" fill="white"/>
</mask>
<g mask="url(#mask7_13004_350)">
<path d="M47.6535 11.3106C47.6535 11.8491 47.3842 12.1183 46.8457 12.1183C46.3073 12.1183 46.0381 11.8491 46.0381 11.3106C46.0381 10.7722 46.3073 10.5029 46.8457 10.5029C47.3842 10.5029 47.6535 11.0414 47.6535 11.3106Z" fill="#282E4C"/>
</g>
<mask id="mask8_13004_350" style="mask-type:luminance" maskUnits="userSpaceOnUse" x="0" y="0" width="70" height="70">
<path d="M0 35.0017C0 54.3854 15.6154 70 35 70C54.3846 70 70 54.3854 70 35.0017C70 15.618 54.3846 0.00337258 35 0.00337258C15.8846 -0.265845 0 15.618 0 35.0017Z" fill="white"/>
</mask>
<g mask="url(#mask8_13004_350)">
<path d="M27.1925 12.6568C27.1925 13.1953 26.9233 13.4644 26.3848 13.4644C25.8463 13.4644 25.5771 13.1953 25.5771 12.6568C25.5771 12.1184 25.8463 11.8491 26.3848 11.8491C26.9233 11.8491 27.1925 12.3876 27.1925 12.6568Z" fill="#282E4C"/>
</g>
<mask id="mask9_13004_350" style="mask-type:luminance" maskUnits="userSpaceOnUse" x="0" y="0" width="70" height="70">
<path d="M0 35.0017C0 54.3854 15.6154 70 35 70C54.3846 70 70 54.3854 70 35.0017C70 15.618 54.3846 0.00337258 35 0.00337258C15.8846 -0.265845 0 15.618 0 35.0017Z" fill="white"/>
</mask>
<g mask="url(#mask9_13004_350)">
<path d="M30.6925 2.69532C30.6925 3.23375 30.4234 3.50294 29.8849 3.50294C29.3464 3.50294 29.0771 3.23375 29.0771 2.69532C29.0771 2.15688 29.3464 1.8877 29.8849 1.8877C30.4234 1.8877 30.6925 2.4261 30.6925 2.69532Z" fill="#282E4C"/>
</g>
</svg>
