<svg width="70" height="70" viewBox="0 0 70 70" fill="none" xmlns="http://www.w3.org/2000/svg">
<mask id="mask0_13004_74" style="mask-type:luminance" maskUnits="userSpaceOnUse" x="0" y="0" width="70" height="70">
<path d="M0 35C0 54.3846 15.6154 70 35 70C54.3846 70 70 54.3846 70 35C70 15.6154 54.3846 0 35 0C15.6154 0 0 15.6154 0 35Z" fill="white"/>
</mask>
<g mask="url(#mask0_13004_74)">
<path d="M34.9997 70.2694C25.5766 70.2694 16.692 66.5003 9.9612 60.0387C3.23044 53.3079 -0.269531 44.4233 -0.269531 35.0002C-0.269531 25.5771 3.49967 16.6925 9.9612 9.96177C16.692 3.23101 25.5766 -0.269043 34.9997 -0.269043C44.4228 -0.269043 53.3074 3.50024 60.0381 9.96177C66.7689 16.6925 70.2689 25.5771 70.2689 35.0002C70.2689 44.4233 66.4997 53.3079 60.0381 60.0387C53.3074 66.5003 44.4228 70.2694 34.9997 70.2694ZM34.9997 5.11557C18.5766 5.11557 5.11508 18.5771 5.11508 35.0002C5.11508 51.4233 18.5766 64.8848 34.9997 64.8848C51.4228 64.8848 64.8843 51.4233 64.8843 35.0002C64.8843 18.3079 51.4228 5.11557 34.9997 5.11557Z" fill="#D24A43"/>
</g>
<mask id="mask1_13004_74" style="mask-type:luminance" maskUnits="userSpaceOnUse" x="0" y="0" width="70" height="70">
<path d="M0 35C0 54.3846 15.6154 70 35 70C54.3846 70 70 54.3846 70 35C70 15.6154 54.3846 0 35 0C15.6154 0 0 15.6154 0 35Z" fill="white"/>
</mask>
<g mask="url(#mask1_13004_74)">
<path d="M17.7692 12.3848C19.1153 13.4617 20.7307 14.2694 22.0769 15.3463C26.6538 19.1156 30.1538 23.9617 32.5769 29.6155C36.6153 38.5001 38.2307 49.8078 37.9615 57.6155H31.5C31.5 55.7309 31.2307 53.8463 31.2307 51.9617C30.9615 44.154 29.8846 36.6155 27.4615 29.3463C25.3076 23.4232 22.6153 17.7693 18.0384 13.1924C17.7692 12.9232 17.7692 12.9232 17.5 12.654C17.5 12.654 17.7692 12.654 17.7692 12.3848Z" fill="#D24A43"/>
</g>
<mask id="mask2_13004_74" style="mask-type:luminance" maskUnits="userSpaceOnUse" x="0" y="0" width="70" height="70">
<path d="M0 35C0 54.3846 15.6154 70 35 70C54.3846 70 70 54.3846 70 35C70 15.6154 54.3846 0 35 0C15.6154 0 0 15.6154 0 35Z" fill="white"/>
</mask>
<g mask="url(#mask2_13004_74)">
<path d="M11.8457 28.269C12.6534 28.8075 13.4611 29.0767 13.9995 29.3459C20.4611 33.6536 24.7687 39.5767 27.1918 47.1152C27.9995 49.8075 28.538 53.0383 29.0765 55.7306C29.0765 55.9998 29.0765 56.5383 29.0765 57.346C26.9226 56.5383 24.7688 55.7306 22.6149 54.9229C22.3457 54.9229 22.0764 54.3844 22.0764 53.846C21.538 44.6921 18.3072 36.6152 12.3841 29.6152C12.1149 29.346 11.8457 29.0768 11.8457 28.8075C11.8457 29.0768 11.8457 28.8075 11.8457 28.269Z" fill="#D24A43"/>
</g>
<mask id="mask3_13004_74" style="mask-type:luminance" maskUnits="userSpaceOnUse" x="0" y="0" width="70" height="70">
<path d="M0 35C0 54.3846 15.6154 70 35 70C54.3846 70 70 54.3846 70 35C70 15.6154 54.3846 0 35 0C15.6154 0 0 15.6154 0 35Z" fill="white"/>
</mask>
<g mask="url(#mask3_13004_74)">
<path d="M56.538 29.3462C55.1918 31.5 54.1149 33.6539 53.038 35.5385C50.0764 41.1924 48.461 47.1154 47.9226 53.577C47.9226 54.3847 47.6534 54.9231 46.8457 55.1924C44.9611 56.0001 42.8072 57.077 40.6533 57.8847C40.6533 54.1154 41.1918 51.1539 42.2687 47.9232C44.1533 41.7309 47.3841 36.3462 51.961 32.0385C52.7687 31.2308 53.8457 30.4231 54.6534 29.8847C55.461 29.6155 55.9995 29.6154 56.538 29.3462Z" fill="#D24A43"/>
</g>
<mask id="mask4_13004_74" style="mask-type:luminance" maskUnits="userSpaceOnUse" x="0" y="0" width="70" height="70">
<path d="M0 35C0 54.3846 15.6154 70 35 70C54.3846 70 70 54.3846 70 35C70 15.6154 54.3846 0 35 0C15.6154 0 0 15.6154 0 35Z" fill="white"/>
</mask>
<g mask="url(#mask4_13004_74)">
<path d="M40.1151 42.8078C39.3074 39.8462 38.7689 37.4231 38.2305 34.7308C38.2305 34.4616 38.2305 33.9232 38.2305 33.6539C39.8459 29.3462 41.9997 25.577 45.769 22.6154C47.3844 21.2693 48.9997 20.4616 50.8843 20.1924C44.1536 26.3847 41.7305 34.1924 40.1151 42.8078Z" fill="#D24A43"/>
</g>
</svg>
