<svg width="70" height="70" viewBox="0 0 70 70" fill="none" xmlns="http://www.w3.org/2000/svg">
<mask id="mask0_13004_425" style="mask-type:luminance" maskUnits="userSpaceOnUse" x="0" y="0" width="70" height="70">
<path d="M0 35.0017C0 54.3854 15.6154 70 35 70C54.3846 70 70 54.3854 70 35.0017C70 15.618 54.3846 0.00337258 35 0.00337258C15.6154 -0.265845 0 15.618 0 35.0017Z" fill="white"/>
</mask>
<g mask="url(#mask0_13004_425)">
<path d="M59.7693 9.96462C55.7308 5.92635 51.1539 3.23422 46.0385 1.3497C47.3846 5.11875 48.1923 6.73399 48.7308 8.3493C58.1539 13.1952 64.6154 23.1563 64.6154 34.7327C64.6154 51.155 51.1538 64.3466 35 64.3466C26.9231 64.3466 19.3846 61.116 14.2692 55.7316C12.923 56.0009 11.0384 56.8085 9.15383 58.1546C9.42306 58.693 9.96151 58.9622 10.2307 59.5007C16.9615 66.2311 25.5769 69.731 35 69.731C44.4231 69.731 53.3077 65.9619 59.7693 59.5007C66.5 52.7702 70 44.1553 70 34.7327C70 25.5793 66.5 16.6951 59.7693 9.96462ZM5.38462 35.0019C5.38462 18.5796 18.8462 5.38797 35 5.38797C37.4231 5.38797 40.1154 5.65715 42.2693 6.19559C42.8077 5.11871 43.3462 3.23419 43.3462 0.81123C40.6539 0.00357634 37.6923 -0.265625 35 -0.265625C25.5769 -0.265625 16.6923 3.50339 10.2307 9.96462C3.49997 16.6951 0 25.3101 0 34.7327C0 43.0784 1.88465 49.8089 7.26926 56.2701C7.53849 54.924 9.42308 53.3087 10.7692 51.9626C7.26923 47.3859 5.38462 41.1939 5.38462 35.0019Z" fill="#77B75F"/>
</g>
<mask id="mask1_13004_425" style="mask-type:luminance" maskUnits="userSpaceOnUse" x="0" y="0" width="70" height="70">
<path d="M0 35.0017C0 54.3854 15.6154 70 35 70C54.3846 70 70 54.3854 70 35.0017C70 15.618 54.3846 0.00337258 35 0.00337258C15.6154 -0.265845 0 15.618 0 35.0017Z" fill="white"/>
</mask>
<g mask="url(#mask1_13004_425)">
<path fill-rule="evenodd" clip-rule="evenodd" d="M44.4234 0.811035C46.8465 3.77243 48.4618 11.3105 46.8464 15.8872C46.5772 16.4257 46.5773 16.9641 46.308 17.5026C43.6157 23.4254 37.1541 25.5791 37.1541 31.7711C37.1541 38.7707 45.7695 46.3088 54.6541 52.77C56.0003 53.8469 57.3464 54.6546 58.6926 55.4622C57.3464 56.5391 56.0003 57.3467 54.6541 58.1544C53.5772 57.0775 52.5003 56.0007 51.6927 54.9238C47.9234 50.3471 33.9234 39.8476 35.2696 30.9635C36.6157 22.6177 42.2696 22.6177 43.3465 14.0027C42.2696 18.3102 40.9234 19.3871 38.7695 22.3485C37.1541 21.81 36.0772 20.1947 36.3465 17.5026C36.6157 15.0796 40.3849 12.3874 42.5387 9.42604C44.6926 6.46464 44.9619 4.31087 44.4234 0.811035Z" fill="#77B75F"/>
</g>
<mask id="mask2_13004_425" style="mask-type:luminance" maskUnits="userSpaceOnUse" x="0" y="0" width="70" height="70">
<path d="M0 35.0017C0 54.3854 15.6154 70 35 70C54.3846 70 70 54.3854 70 35.0017C70 15.618 54.3846 0.00337258 35 0.00337258C15.6154 -0.265845 0 15.618 0 35.0017Z" fill="white"/>
</mask>
<g mask="url(#mask2_13004_425)">
<path fill-rule="evenodd" clip-rule="evenodd" d="M39.5772 47.1164C36.6156 43.6165 30.6925 41.732 24.5002 43.8857C18.5772 45.7702 12.3848 50.8854 8.07715 57.0774C18.5771 52.5007 27.1925 57.6158 30.9618 57.6158C34.731 57.6158 41.4618 54.3852 43.6156 50.8854C36.3464 46.8471 27.731 46.3087 18.0387 50.6162C23.4233 47.6548 28.5387 44.6934 39.5772 47.1164Z" fill="#77B75F"/>
</g>
<mask id="mask3_13004_425" style="mask-type:luminance" maskUnits="userSpaceOnUse" x="0" y="0" width="70" height="70">
<path d="M0 35.0017C0 54.3854 15.6154 70 35 70C54.3846 70 70 54.3854 70 35.0017C70 15.618 54.3846 0.00337258 35 0.00337258C15.6154 -0.265845 0 15.618 0 35.0017Z" fill="white"/>
</mask>
<g mask="url(#mask3_13004_425)">
<path fill-rule="evenodd" clip-rule="evenodd" d="M43.6158 40.9245C41.7312 39.3092 41.1927 33.3864 43.6158 29.8866C46.0389 26.3868 51.4234 23.4254 56.5388 21.8101C51.4234 28.0021 53.8465 33.9249 52.7696 37.4247C51.9619 40.9246 48.1926 43.886 45.2311 44.4244C44.6926 37.9632 45.7696 31.2327 50.0773 27.1944C46.8465 29.6174 44.1542 32.848 43.6158 40.9245Z" fill="#77B75F"/>
</g>
</svg>
