<svg width="70" height="70" viewBox="0 0 70 70" fill="none" xmlns="http://www.w3.org/2000/svg">
<mask id="mask0_13004_409" style="mask-type:luminance" maskUnits="userSpaceOnUse" x="0" y="0" width="70" height="70">
<path d="M0 35.0017C0 54.3854 15.6154 70 35 70C54.3846 70 70 54.3854 70 35.0017C70 15.618 54.3846 0.00337258 35 0.00337258C15.8846 -0.265845 0 15.618 0 35.0017Z" fill="white"/>
</mask>
<g mask="url(#mask0_13004_409)">
<path d="M60.0381 10.2337C53.3073 3.50322 44.6919 0.00341797 35.2688 0.00341797C31.4996 0.00341797 27.7304 0.54187 24.2304 1.61874C25.8457 2.69561 28.2689 4.31092 30.692 5.65701C32.0381 5.38779 33.6534 5.38777 34.9996 5.38777C51.4227 5.38777 64.615 18.8487 64.615 35.0017C64.615 46.0397 58.4227 56.0007 49.2689 60.8467C49.2689 63.0004 48.9997 65.4233 48.192 67.3079C52.4997 65.6926 56.2688 63.0004 59.4996 59.7698C66.2304 53.0394 69.7304 44.4244 69.7304 35.0017C69.7304 25.5791 66.7689 16.6949 60.0381 10.2337ZM41.1919 64.0772C39.3073 64.3464 37.1535 64.6157 35.2688 64.6157C18.8458 64.6157 5.65345 51.1548 5.65345 35.0017C5.65345 23.6946 11.8458 14.0027 21.2689 8.88757C21.2689 6.73383 21.5381 4.31089 22.0765 2.42636C17.7689 4.04167 13.9996 6.7339 10.7688 9.96451C4.03805 16.695 0.538086 25.3099 0.538086 34.7325C0.538086 44.1551 4.30728 53.0393 10.7688 59.5006C17.4996 66.231 26.115 69.7308 35.5381 69.7308C39.8458 69.7308 43.8842 68.9232 47.6535 67.5771C46.0381 67.0387 43.8843 65.4233 41.1919 64.0772Z" fill="#597960"/>
</g>
<mask id="mask1_13004_409" style="mask-type:luminance" maskUnits="userSpaceOnUse" x="0" y="0" width="70" height="70">
<path d="M0 35.0017C0 54.3854 15.6154 70 35 70C54.3846 70 70 54.3854 70 35.0017C70 15.618 54.3846 0.00337258 35 0.00337258C15.8846 -0.265845 0 15.618 0 35.0017Z" fill="white"/>
</mask>
<g mask="url(#mask1_13004_409)">
<path d="M13.1926 36.8861C16.4234 42.0013 20.731 44.6934 25.8464 46.3088C29.8849 47.6548 33.9233 49.5393 37.6926 51.4239C39.0387 51.9623 40.3849 53.0392 42.0003 54.3853C40.9234 50.8855 38.5003 49.2701 35.808 47.924C31.5003 45.501 27.1926 43.3474 22.8849 40.9244C18.308 38.2322 14.808 34.4631 13.1926 29.348C11.0388 22.8868 13.1926 17.2332 17.5003 12.6565C18.308 11.8489 19.1157 11.3104 20.4618 10.772C20.4618 11.3104 20.1926 11.8488 19.9234 12.1181C14.5388 19.1177 15.8849 30.9633 25.8464 35.54C28.808 36.8861 31.7695 38.5014 35.0003 39.8475C42.2695 42.8089 46.308 48.1933 47.6541 55.7314C48.4618 59.2312 48.1926 67.0385 47.9234 67.8462C47.1157 67.3077 37.9618 61.1157 33.1157 59.7696C29.6157 58.962 26.1156 57.6158 22.8849 56.2698C15.8849 52.7699 12.1157 44.6934 13.1926 36.8861Z" fill="#597960"/>
</g>
<mask id="mask2_13004_409" style="mask-type:luminance" maskUnits="userSpaceOnUse" x="0" y="0" width="70" height="70">
<path d="M0 35.0017C0 54.3854 15.6154 70 35 70C54.3846 70 70 54.3854 70 35.0017C70 15.618 54.3846 0.00337258 35 0.00337258C15.8846 -0.265845 0 15.618 0 35.0017Z" fill="white"/>
</mask>
<g mask="url(#mask2_13004_409)">
<path d="M29.3464 15.0795C30.4234 18.0409 32.0387 19.387 34.1925 20.7331C37.9618 22.8869 41.731 24.7714 45.5003 26.9251C48.1926 28.5404 50.8849 30.1557 53.0387 32.0402C57.8849 36.3477 59.7695 42.0013 58.4233 48.4625C57.3464 53.0392 54.9233 56.5391 50.3464 59.2312C50.8849 58.4236 51.1541 57.8851 51.4233 57.6159C57.6156 48.7317 54.6541 37.963 45.231 33.6556C42.808 32.5787 40.1156 31.2326 37.6925 30.1558C29.0771 26.9251 24.5002 20.4638 23.1541 11.5797C22.8848 9.42592 22.8848 2.96474 23.1541 1.61865C24.5002 2.69552 25.5772 3.50318 26.6541 4.31083C29.8849 7.00301 33.9233 8.34908 37.6925 9.42595C39.8464 9.96439 42.0002 10.7721 44.4233 11.3105C49.0002 12.3874 52.231 15.3487 55.1925 18.8486C57.0771 21.0023 57.6156 23.6945 58.1541 26.3866C58.6925 28.0019 58.4233 29.6173 58.6926 32.0402C57.8849 31.2326 57.6156 31.2326 57.3464 30.6941C55.1926 27.4635 52.231 25.3098 48.731 23.6945C44.1541 21.8099 39.5771 19.9255 35.0002 18.041C33.1156 17.5025 31.5003 16.4256 29.3464 15.0795Z" fill="#597960"/>
</g>
</svg>
