<svg width="70" height="70" viewBox="0 0 70 70" fill="none" xmlns="http://www.w3.org/2000/svg">
<mask id="mask0_13004_346" style="mask-type:luminance" maskUnits="userSpaceOnUse" x="0" y="0" width="70" height="70">
<path d="M0 35C0 54.3846 15.6154 70 35 70C54.3846 70 70 54.3846 70 35C70 15.6154 54.3846 0 35 0C15.6154 0 0 15.6154 0 35Z" fill="white"/>
</mask>
<g mask="url(#mask0_13004_346)">
<path d="M58.6921 21.5387C58.4229 23.4233 58.1537 25.3078 57.6152 27.1924C56.5383 31.7694 55.1922 36.3463 53.0384 40.654C49.5384 47.1155 44.1537 50.8848 37.1537 52.231C33.6537 53.0386 29.8844 52.7694 26.3844 52.5002C26.1152 52.5002 25.846 52.5002 25.5768 52.5002C24.7691 52.5002 24.2306 51.6925 24.4999 51.154C24.4999 50.3464 25.3076 50.0771 25.846 50.0771C28.2691 50.0771 30.9614 50.3463 33.3845 50.3463C41.9998 49.8078 48.4614 45.7694 51.9614 37.6925C53.846 33.3848 55.1921 28.8079 55.9998 24.231C55.9998 23.9617 55.9999 23.6925 55.4614 23.4232C52.7691 22.8848 50.0768 22.0771 47.3845 21.8078C43.0768 21.2694 39.0383 21.2694 34.7306 21.2694C30.6921 21.5386 27.1921 22.6156 23.6921 24.231C18.5767 26.3848 15.8845 30.4232 15.0768 35.8079C14.5383 39.5771 15.8845 42.8079 18.5768 45.7694C19.3845 44.6925 19.923 43.6156 20.7307 42.5386C25.3076 36.3463 31.2307 32.3079 38.2307 29.6156C39.0384 29.3464 39.5767 29.6155 39.846 30.154C40.1152 30.9617 39.846 31.5002 39.0383 31.7694C36.0768 32.8463 33.3845 34.1925 30.9614 35.8079C24.7691 40.1155 20.4614 45.7694 18.0384 53.0386C17.4999 54.654 16.9614 56.2694 16.6922 57.8848C16.1537 59.7694 15.8844 61.9232 15.6152 63.8078C14.8075 63.2694 13.9999 62.7309 13.4614 62.1924C13.7306 60.0386 14.2691 58.154 14.8075 56.0002C15.6152 53.3079 16.4229 50.8848 17.4999 48.1925C17.4999 47.9233 17.7691 47.9232 17.7691 47.654C14.5383 44.4232 12.6537 40.654 12.9229 36.0771C13.4614 30.154 16.423 25.3079 21.8076 22.6156C26.1153 20.1925 30.9614 18.8464 36.0768 18.8464C40.1152 18.5771 44.4229 18.8463 48.4614 19.3848C51.4229 19.9232 54.6537 20.731 57.6152 21.2694C57.346 21.2694 57.8844 21.5387 58.6921 21.5387Z" fill="#2A74B2"/>
</g>
<mask id="mask1_13004_346" style="mask-type:luminance" maskUnits="userSpaceOnUse" x="0" y="0" width="70" height="70">
<path d="M0 35C0 54.3846 15.6154 70 35 70C54.3846 70 70 54.3846 70 35C70 15.6154 54.3846 0 35 0C15.6154 0 0 15.6154 0 35Z" fill="white"/>
</mask>
<g mask="url(#mask1_13004_346)">
<path d="M26.385 25.5771C24.5004 25.5771 23.1543 26.9233 23.1543 28.8079C23.1543 30.6925 24.5004 32.0387 26.385 32.0387C28.2696 32.0387 29.6158 30.6925 29.6158 28.8079C29.3466 27.1925 28.0004 25.5771 26.385 25.5771ZM26.1159 29.6156C25.5774 29.6156 25.3081 29.3463 25.3081 28.8079C25.3081 28.2694 25.5774 28.0002 26.1159 28.0002C26.6543 28.0002 26.9235 28.2694 26.9235 28.8079C26.9235 29.3463 26.6543 29.6156 26.1159 29.6156Z" fill="#2A74B2"/>
</g>
<mask id="mask2_13004_346" style="mask-type:luminance" maskUnits="userSpaceOnUse" x="0" y="0" width="70" height="70">
<path d="M0 35C0 54.3846 15.6154 70 35 70C54.3846 70 70 54.3846 70 35C70 15.6154 54.3846 0 35 0C15.6154 0 0 15.6154 0 35Z" fill="white"/>
</mask>
<g mask="url(#mask2_13004_346)">
<path d="M47.1156 27.1924C45.5002 27.1924 43.8848 28.5386 43.8848 30.4232C43.8848 32.3078 45.231 33.654 47.1156 33.654C49.0002 33.654 50.3464 32.3078 50.3464 30.4232C50.0771 28.8078 48.731 27.1924 47.1156 27.1924ZM47.1156 31.2308C46.5771 31.2308 46.3079 30.9616 46.3079 30.4232C46.3079 29.8847 46.5771 29.6155 47.1156 29.6155C47.654 29.6155 47.9232 29.8847 47.9232 30.4232C47.654 30.9616 47.3848 31.2308 47.1156 31.2308Z" fill="#2A74B2"/>
</g>
<mask id="mask3_13004_346" style="mask-type:luminance" maskUnits="userSpaceOnUse" x="0" y="0" width="70" height="70">
<path d="M0 35C0 54.3846 15.6154 70 35 70C54.3846 70 70 54.3846 70 35C70 15.6154 54.3846 0 35 0C15.6154 0 0 15.6154 0 35Z" fill="white"/>
</mask>
<g mask="url(#mask3_13004_346)">
<path d="M37.4231 35.269C35.8077 35.269 34.1924 36.6152 34.1924 38.4998C34.1924 40.3845 35.5385 41.7306 37.4231 41.7306C39.3077 41.7306 40.6539 40.3845 40.6539 38.4998C40.6539 36.6152 39.3077 35.269 37.4231 35.269ZM37.4231 39.3075C36.8846 39.3075 36.6154 39.0383 36.6154 38.4998C36.6154 37.9614 36.8846 37.6922 37.4231 37.6922C37.9616 37.6922 38.2308 37.9614 38.2308 38.4998C38.2308 39.0383 37.9616 39.3075 37.4231 39.3075Z" fill="#2A74B2"/>
</g>
<mask id="mask4_13004_346" style="mask-type:luminance" maskUnits="userSpaceOnUse" x="0" y="0" width="70" height="70">
<path d="M0 35C0 54.3846 15.6154 70 35 70C54.3846 70 70 54.3846 70 35C70 15.6154 54.3846 0 35 0C15.6154 0 0 15.6154 0 35Z" fill="white"/>
</mask>
<g mask="url(#mask4_13004_346)">
<path d="M29.3462 41.1924C30.4231 41.1924 31.2308 42.0001 31.2308 43.077C31.2308 44.154 30.1539 45.2308 29.0769 45.2308C28 45.2308 27.1924 44.154 27.1924 43.077C27.4616 42.0001 28.2693 41.1924 29.3462 41.1924Z" fill="#2A74B2"/>
</g>
<mask id="mask5_13004_346" style="mask-type:luminance" maskUnits="userSpaceOnUse" x="0" y="0" width="70" height="70">
<path d="M0 35C0 54.3846 15.6154 70 35 70C54.3846 70 70 54.3846 70 35C70 15.6154 54.3846 0 35 0C15.6154 0 0 15.6154 0 35Z" fill="white"/>
</mask>
<g mask="url(#mask5_13004_346)">
<path d="M19.9233 33.1152C18.8464 33.1152 18.0388 33.923 17.7695 34.9999C17.7695 36.0768 18.5772 37.1537 19.6541 37.1537C20.731 37.1537 21.5388 36.346 21.808 35.269C22.0772 34.1921 21.0003 33.1152 19.9233 33.1152ZM19.9233 35.8075C19.6541 35.5383 19.6541 35.269 19.6541 35.269L19.9233 34.9999C20.1926 34.9999 20.1926 35.269 20.1926 35.269C20.1926 35.269 20.1926 35.5383 19.9233 35.8075Z" fill="#2A74B2"/>
</g>
<mask id="mask6_13004_346" style="mask-type:luminance" maskUnits="userSpaceOnUse" x="0" y="0" width="70" height="70">
<path d="M0 35C0 54.3846 15.6154 70 35 70C54.3846 70 70 54.3846 70 35C70 15.6154 54.3846 0 35 0C15.6154 0 0 15.6154 0 35Z" fill="white"/>
</mask>
<g mask="url(#mask6_13004_346)">
<path d="M35.8074 44.4229C34.7305 44.4229 33.9229 45.2305 33.9229 46.3074C33.9229 47.3843 34.7305 48.1921 35.8074 48.4613C36.8843 48.4613 37.9613 47.6536 37.9613 46.5767C37.9613 45.2305 36.8843 44.4229 35.8074 44.4229ZM35.8074 46.8459L35.5383 46.5767L35.8074 46.3074C35.8074 46.3074 36.0767 46.5767 36.3459 46.5767C36.0767 46.5767 36.0766 46.8459 35.8074 46.8459Z" fill="#2A74B2"/>
</g>
<mask id="mask7_13004_346" style="mask-type:luminance" maskUnits="userSpaceOnUse" x="0" y="0" width="70" height="70">
<path d="M0 35C0 54.3846 15.6154 70 35 70C54.3846 70 70 54.3846 70 35C70 15.6154 54.3846 0 35 0C15.6154 0 0 15.6154 0 35Z" fill="white"/>
</mask>
<g mask="url(#mask7_13004_346)">
<path d="M45.4998 37.9614C44.4229 37.9614 43.6152 38.7692 43.6152 39.8461C43.6152 40.923 44.4229 41.7307 45.4998 41.7307C46.5767 41.7307 47.3845 40.923 47.6537 39.8461C47.3845 39.0384 46.5767 37.9614 45.4998 37.9614ZM45.4998 40.3846C45.4998 40.3846 45.2306 40.1153 44.9614 40.1153C45.2306 39.8461 45.2306 39.8461 45.4998 39.8461L45.769 40.1153L45.4998 40.3846Z" fill="#2A74B2"/>
</g>
<mask id="mask8_13004_346" style="mask-type:luminance" maskUnits="userSpaceOnUse" x="0" y="0" width="70" height="70">
<path d="M0 35C0 54.3846 15.6154 70 35 70C54.3846 70 70 54.3846 70 35C70 15.6154 54.3846 0 35 0C15.6154 0 0 15.6154 0 35Z" fill="white"/>
</mask>
<g mask="url(#mask8_13004_346)">
<path d="M34.1923 23.6924C33.1153 23.6924 32.3076 24.5001 32.3076 25.577C32.3076 26.654 33.1153 27.4616 34.1923 27.7308C35.2692 27.7308 36.0768 26.9231 36.3461 25.8462C36.3461 24.5 35.2692 23.6924 34.1923 23.6924ZM34.1923 25.8462C33.923 25.8462 33.923 25.577 33.923 25.577L34.1923 25.3078C34.1923 25.3078 34.4614 25.577 34.7307 25.577C34.4614 25.8463 34.4615 26.1154 34.1923 25.8462Z" fill="#2A74B2"/>
</g>
<mask id="mask9_13004_346" style="mask-type:luminance" maskUnits="userSpaceOnUse" x="0" y="0" width="70" height="70">
<path d="M0 35C0 54.3846 15.6154 70 35 70C54.3846 70 70 54.3846 70 35C70 15.6154 54.3846 0 35 0C15.6154 0 0 15.6154 0 35Z" fill="white"/>
</mask>
<g mask="url(#mask9_13004_346)">
<path d="M42.2694 23.6924C41.1925 23.6924 40.3848 24.5 40.3848 25.8462C40.3848 26.9231 41.1925 27.7308 42.2694 27.7308C43.3463 27.7308 44.154 26.9232 44.154 25.577C44.154 24.5001 43.3463 23.6924 42.2694 23.6924ZM42.2694 25.8462L42.0002 25.577C42.0002 25.577 42.2694 25.3078 42.2694 25.0385C42.5386 25.3078 42.5386 25.3078 42.5386 25.577C42.5386 25.8463 42.2694 25.8462 42.2694 25.8462Z" fill="#2A74B2"/>
</g>
<mask id="mask10_13004_346" style="mask-type:luminance" maskUnits="userSpaceOnUse" x="0" y="0" width="70" height="70">
<path d="M0 35C0 54.3846 15.6154 70 35 70C54.3846 70 70 54.3846 70 35C70 15.6154 54.3846 0 35 0C15.6154 0 0 15.6154 0 35Z" fill="white"/>
</mask>
<g mask="url(#mask10_13004_346)">
<path d="M60.0387 10.2307C53.3079 3.49997 44.6926 0 35.2695 0C25.8465 0 16.9618 3.7692 10.5003 10.2307C3.7695 16.9615 0.269531 25.5769 0.269531 35C0.269531 44.4231 4.03873 53.3076 10.5003 59.7692C11.308 60.5769 12.1156 61.3846 12.9233 61.9231C13.731 62.4615 14.2695 62.9999 15.0772 63.5384C21.0003 67.5769 28.0003 70 35.2695 70C44.6926 70 53.5772 66.2307 60.0387 59.7692C66.7695 53.0384 70.2695 44.4231 70.2695 35C70.2695 25.5769 66.5003 16.9615 60.0387 10.2307ZM35.0003 64.8846C27.7311 64.8846 21.0003 62.1923 15.8849 57.8846C15.0772 57.3462 14.5388 56.5384 14.0003 56C8.6157 50.6154 5.3849 43.3461 5.3849 35.2692C5.3849 18.8461 18.8464 5.65378 35.0003 5.65378C51.1541 5.65378 64.6157 19.1153 64.6157 35.2692C64.6157 51.423 51.4234 64.8846 35.0003 64.8846Z" fill="#2A74B2"/>
</g>
</svg>
